<?xml version="1.0" encoding="UTF-8" standalone="no"?>
<!-- Created with Inkscape (http://www.inkscape.org/) -->

<svg
   width="100.955mm"
   height="33.984001mm"
   viewBox="0 0 100.955 33.984001"
   version="1.1"
   id="svg5"
   xmlns="http://www.w3.org/2000/svg"
   xmlns:svg="http://www.w3.org/2000/svg">
  <defs
     id="defs2" />
  <path
     style="color:#000000;display:inline;fill:#0044aa;fill-opacity:1;-inkscape-stroke:none"
     d="M 14.962345,5 5,28.983422 h 1.369977 l 9.436118,-22.717797 5.558593,0.0098 V 22.34964 l -8.216796,-0.0059 -0.002,1.265625 9.484374,0.0059 V 5.013672 Z"
     id="path947-9-6-87-8-7-8-1-0-0" />
  <path
     style="color:#000000;display:inline;fill:#5599ff;fill-opacity:1;-inkscape-stroke:none"
     d="m 20.052189,7.517578 -3.392579,0.0039 -8.953009,21.461937 h 1.370854 l 8.425905,-20.196312 1.285157,-0.002 V 19.9121 h -4.636719 v 1.265625 h 5.900391 z"
     id="path949-6-3-19-2-5-9-3-2-2" />
  <path
     style="color:#000000;display:inline;fill:#5599ff;fill-opacity:1;-inkscape-stroke:none"
     d="m 18.788517,24.494142 v 4.490234 h 1.263672 v -4.490234 z"
     id="path951-5-6-1-2-5-8-9-9-4" />
  <path
     style="color:#000000;display:inline;fill:#0044aa;fill-opacity:1;-inkscape-stroke:none"
     d="m 21.364688,22.982423 v 6.001953 h 1.265625 v -6.001953 z"
     id="path955-9-5-03-4-4-3-5-1-4" />
  <path
     style="color:#000000;display:inline;fill:#0044aa;fill-opacity:1;-inkscape-stroke:none"
     d="m 24.495547,5 0.002,23.984376 h 1.263672 l -0.002,-22.718751 5.109375,0.0059 h 0.002 c 1.299397,0 2.769388,0.274309 3.875,1.121094 1.105612,0.846786 1.933594,2.258999 1.933594,4.857422 0,2.599406 -0.836857,4.170847 -1.955078,5.146485 -1.118221,0.975639 -2.577375,1.357422 -3.845703,1.357422 H 29.15575 v 1.265625 h 1.722657 c 1.519009,0 3.276298,-0.44718 4.677734,-1.669922 1.401436,-1.222741 2.388672,-3.219651 2.388672,-6.09961 0,-2.880941 -1.006892,-4.773566 -2.429688,-5.863281 C 34.09233,5.297044 32.342435,5.0059 30.870594,5.0059 Z"
     id="path957-5-5-05-8-1-2-7-7-8" />
  <path
     style="color:#000000;display:inline;fill:#5599ff;fill-opacity:1;-inkscape-stroke:none"
     d="m 26.985782,7.47461 -0.0059,21.509766 h 1.265625 l 0.0059,-20.240235 2.634765,0.0059 h 0.002 c 1.216106,0 2.011382,0.355549 2.542969,0.941406 0.531587,0.585857 0.826172,1.460768 0.826172,2.605469 0,1.144705 -0.303143,2.147444 -0.857422,2.841797 -0.554279,0.694352 -1.346786,1.126479 -2.548828,1.140625 h -1.685547 v 1.263672 h 1.697266 0.0039 c 1.520605,-0.01789 2.74328,-0.637921 3.523437,-1.615235 0.780158,-0.977313 1.13086,-2.266418 1.13086,-3.630859 0,-1.364437 -0.358671,-2.578227 -1.154297,-3.455078 C 33.571394,7.965362 32.36677,7.484831 30.890079,7.484375 h -0.002 z"
     id="path959-2-8-18-1-3-3-3-7-8" />
  <path
     style="color:#000000;display:inline;fill:#5599ff;fill-opacity:1;-inkscape-stroke:none"
     d="m 32.845158,20.683595 -1.177735,0.464843 3.095302,7.834984 h 1.359367 z"
     id="path961-5-2-96-1-7-5-2-9-3" />
  <path
     style="color:#000000;display:inline;fill:#0044aa;fill-opacity:1;-inkscape-stroke:none"
     d="m 34.522891,18.439454 -1.169922,0.480469 4.127637,10.063499 h 1.366991 z"
     id="path963-8-8-2-1-7-8-6-3-9" />
  <path
     style="color:#000000;display:inline;fill:#5599ff;fill-opacity:1;-inkscape-stroke:none"
     d="m 47.337344,7.496094 c -2.316584,0 -3.807403,1.456611 -4.580078,3.146485 -0.772675,1.689874 -0.960937,3.637043 -0.960937,5.019531 v 2.324219 c 0,1.973096 0.241858,4.005058 1.033204,5.632813 0.791345,1.627755 2.251881,2.845014 4.361328,2.875 1.944658,0.02766 3.328116,-0.720364 4.128906,-1.820313 0.80079,-1.099948 1.046875,-2.471609 1.046875,-3.730469 h -1.265625 c 0,1.087068 -0.23096,2.200951 -0.802734,2.986328 -0.571774,0.785378 -1.455766,1.32207 -3.089844,1.298829 -1.66611,-0.02368 -2.59203,-0.82477 -3.242188,-2.16211 -0.650158,-1.337339 -0.904297,-3.216358 -0.904297,-5.080078 V 15.66211 c 0,-1.258869 0.19769,-3.076908 0.845704,-4.494141 0.648013,-1.417232 1.612236,-2.408203 3.429687,-2.408203 1.761001,0 2.581509,0.6875 3.103516,1.613282 0.522007,0.925781 0.65625,2.150029 0.65625,3.037109 h 1.263672 c 0,-0.999238 -0.116963,-2.414272 -0.81836,-3.658203 -0.701397,-1.243931 -2.075943,-2.25586 -4.205079,-2.25586 z"
     id="path965-9-9-2-9-5-2-1-4-0-0-9" />
  <path
     style="color:#000000;display:inline;fill:#0044aa;fill-opacity:1;-inkscape-stroke:none"
     d="m 47.476016,5.001953 c -2.805587,0 -4.929224,1.35154 -6.255859,3.371094 -1.326634,2.019555 -1.916016,4.676094 -1.916016,7.437501 v 2.216797 c 0,3.86686 0.976968,6.606383 2.460938,8.386718 1.483971,1.780336 3.463366,2.56836 5.316406,2.56836 2.6673,0 4.658325,-1.027528 5.921875,-2.5625 1.263551,-1.534972 1.814453,-3.532153 1.814453,-5.486328 h -1.265625 c 0,1.714661 -0.491978,3.42624 -1.525391,4.68164 -1.033413,1.2554 -2.592697,2.101563 -4.945312,2.101563 -1.501016,0 -3.095397,-0.613275 -4.345703,-2.113281 -1.250307,-1.500006 -2.167969,-3.92188 -2.167969,-7.576172 v -2.216797 c 0,-2.578188 0.570414,-5.01088 1.708984,-6.744141 1.138571,-1.733262 2.784222,-2.798828 5.199219,-2.798828 2.137144,0 3.593981,0.837611 4.589844,2.144531 0.995863,1.30692 1.5,3.123253 1.5,5.021484 h 1.265625 c 0,-2.118934 -0.547491,-4.200697 -1.757813,-5.789062 C 51.863351,6.056167 49.958379,5.001953 47.476016,5.001953 Z"
     id="path2151-8-6-5-5-4-7-2-0-8-5-3" />
  <g
     aria-label="Gen"
     id="text1360-9"
     style="font-weight:300;font-size:28.2222px;line-height:1.25;font-family:'Roboto Condensed';-inkscape-font-specification:'Roboto Condensed, Light';letter-spacing:0px;display:inline;fill:#666666;stroke-width:0.264583">
    <path
       d="m 69.331588,26.378931 q -1.005967,1.295354 -2.535589,1.956812 -1.529621,0.647678 -3.34863,0.647678 -3.086803,0 -4.850691,-2.067056 -1.763887,-2.067056 -1.832789,-5.732634 v -4.878252 q 0,-3.844723 1.667425,-5.884218 1.681205,-2.0532758 4.781789,-2.0532758 2.769854,0 4.340817,1.5296213 1.570962,1.5296215 1.763887,4.4097185 h -1.570962 q -0.248047,-2.315102 -1.364257,-3.376191 -1.10243,-1.0748687 -3.155705,-1.0748687 -2.452906,0 -3.679359,1.6398647 -1.212673,1.626083 -1.212673,4.781788 v 4.630205 q 0,3.141925 1.336696,4.878252 1.350477,1.736326 3.775822,1.736326 2.632051,0 4.299476,-1.667425 v -5.22276 h -4.395939 v -1.4745 h 5.980682 z"
       id="path754" />
    <path
       d="m 78.440413,28.983421 q -2.632051,0 -4.120331,-1.722547 -1.48828,-1.722546 -1.515841,-4.905812 v -1.819009 q 0,-3.279728 1.433158,-5.140078 1.433159,-1.874131 3.941187,-1.874131 2.425345,0 3.693139,1.584743 1.281575,1.584743 1.309135,4.85069 v 1.433159 h -8.860778 v 0.840603 q 0,2.563149 1.088649,3.954966 1.10243,1.391818 3.100584,1.391818 2.204859,0 3.569116,-1.612304 l 0.799261,1.019748 q -1.460719,1.998154 -4.437279,1.998154 z M 78.178586,14.955003 q -1.805229,0 -2.783635,1.281574 -0.964626,1.267794 -1.061089,3.7207 h 7.317377 v -0.39963 q -0.110243,-4.602644 -3.472653,-4.602644 z"
       id="path756" />
    <path
       d="m 87.893746,13.797452 0.04134,2.370223 q 0.661458,-1.212672 1.681206,-1.929252 1.033527,-0.716579 2.342663,-0.716579 3.899845,0 3.996307,5.1952 v 9.990769 h -1.515841 v -9.825404 q -0.01378,-1.998154 -0.702798,-2.949 -0.689019,-0.950846 -2.163519,-0.950846 -1.198892,0 -2.163518,0.909505 -0.950846,0.895724 -1.446939,2.466686 V 28.707813 H 86.433027 V 13.797452 Z"
       id="path758" />
  </g>
</svg>
